<?xml version="1.0" standalone="no"?>
<!DOCTYPE svg PUBLIC "-//W3C//DTD SVG 20010904//EN"
 "http://www.w3.org/TR/2001/REC-SVG-20010904/DTD/svg10.dtd">
<svg version="1.0" xmlns="http://www.w3.org/2000/svg"
 width="64.000000pt" height="64.000000pt" viewBox="0 0 64.000000 64.000000"
 preserveAspectRatio="xMidYMid meet">

<g transform="translate(0.000000,64.000000) scale(0.100000,-0.100000)"
fill="#000000" stroke="none">
<path d="M477 425 c-12 -24 -21 -33 -32 -29 -9 4 -26 -3 -40 -16 -22 -21 -24
-21 -49 -4 -15 9 -28 15 -30 13 -2 -2 -15 -24 -30 -47 -25 -39 -29 -42 -44
-29 -34 29 -40 27 -77 -24 -20 -28 -34 -53 -32 -56 3 -2 19 16 37 41 17 25 33
46 36 46 3 0 18 -9 33 -19 l27 -20 24 45 c27 49 31 51 64 29 22 -15 25 -14 44
10 15 18 27 25 40 21 14 -5 22 2 36 30 9 20 15 38 13 40 -2 2 -11 -12 -20 -31z"/>
<path d="M310 115 c0 -8 5 -15 10 -15 6 0 10 7 10 15 0 8 -4 15 -10 15 -5 0
-10 -7 -10 -15z"/>
<path d="M175 50 c-8 -14 3 -30 21 -30 8 0 14 9 14 20 0 21 -24 28 -35 10z"/>
<path d="M430 40 c0 -15 5 -20 18 -18 9 2 17 10 17 18 0 8 -8 16 -17 18 -13 2
-18 -3 -18 -18z"/>
</g>
</svg>
