<?xml version="1.0" standalone="no"?>
<!DOCTYPE svg PUBLIC "-//W3C//DTD SVG 20010904//EN"
 "http://www.w3.org/TR/2001/REC-SVG-20010904/DTD/svg10.dtd">
<svg version="1.0" xmlns="http://www.w3.org/2000/svg"
 width="64.000000pt" height="64.000000pt" viewBox="0 0 64.000000 64.000000"
 preserveAspectRatio="xMidYMid meet">

<g transform="translate(0.000000,64.000000) scale(0.100000,-0.100000)"
fill="#000000" stroke="none">
<path d="M20 320 l0 -300 150 0 150 0 0 25 c0 25 1 25 90 25 50 0 90 4 90 8 0
18 -26 32 -62 32 -34 0 -38 3 -38 25 l0 25 110 0 110 0 -2 183 -2 182 -3 -152
-4 -153 -144 0 -145 0 0 200 0 200 -150 0 -150 0 0 -300z m290 0 l0 -290 -140
0 -140 0 0 290 0 290 140 0 140 0 0 -290z m288 -137 c2 -9 -7 -13 -27 -13 -21
0 -31 5 -31 16 0 19 51 16 58 -3z m-208 -48 c0 -22 -4 -25 -35 -25 -31 0 -35
3 -35 25 0 22 4 25 35 25 31 0 35 -3 35 -25z"/>
<path d="M70 510 l0 -30 100 0 100 0 0 30 0 30 -100 0 -100 0 0 -30z m190 0
c0 -19 -7 -20 -90 -20 -83 0 -90 1 -90 20 0 19 7 20 90 20 83 0 90 -1 90 -20z"/>
<path d="M71 423 c-1 -22 2 -23 99 -23 93 0 100 1 100 20 0 11 -4 20 -10 20
-5 0 -7 -7 -4 -15 5 -13 -8 -15 -84 -15 -78 0 -91 2 -95 18 -4 13 -5 11 -6 -5z"/>
<path d="M146 225 c-9 -9 -16 -20 -16 -25 0 -14 31 -41 43 -37 21 7 32 36 21
54 -15 24 -29 26 -48 8z m42 -19 c6 -29 -15 -43 -35 -24 -14 14 -14 20 -3 33
16 19 34 15 38 -9z"/>
</g>
</svg>
